<svg width="636" height="346" viewBox="0 0 636 346" fill="none" xmlns="http://www.w3.org/2000/svg">
<g clip-path="url(#clip0)">
<path d="M606.484 346H68.9314C64.151 346 59.5664 344.356 56.1862 341.43C52.806 338.504 50.907 334.536 50.907 330.398C245.77 310.795 436.97 310.795 624.508 330.398C624.508 334.536 622.609 338.504 619.229 341.43C615.849 344.356 611.264 346 606.484 346Z" fill="#CCCCCC"/>
<path d="M624.508 331.316L50.907 330.398L117.385 233.573L117.703 233.114V19.7229C117.703 17.1328 118.292 14.568 119.437 12.175C120.582 9.78203 122.261 7.60771 124.376 5.77623C126.492 3.94475 129.004 2.49197 131.769 1.50088C134.533 0.509789 137.496 -0.000216365 140.488 6.88581e-08H531.746C534.738 -0.000216365 537.701 0.509789 540.465 1.50088C543.23 2.49197 545.742 3.94475 547.858 5.77623C549.974 7.60771 551.652 9.78203 552.797 12.175C553.942 14.568 554.531 17.1328 554.531 19.7229V234.582L624.508 331.316Z" fill="#E6E6E6"/>
<path d="M139.969 13.7666C138.001 13.7685 136.115 14.446 134.723 15.6504C133.332 16.8547 132.549 18.4877 132.547 20.191V214.759C132.549 216.462 133.332 218.095 134.723 219.299C136.115 220.504 138.001 221.181 139.969 221.183H535.446C537.414 221.181 539.3 220.503 540.691 219.299C542.083 218.095 542.865 216.462 542.868 214.759V20.191C542.866 18.4877 542.083 16.8548 540.692 15.6504C539.3 14.4461 537.414 13.7686 535.446 13.7666H139.969Z" fill="white"/>
<path d="M142.568 246.881C141.96 246.882 141.365 247.033 140.853 247.317C140.341 247.601 139.933 248.005 139.678 248.483L119.194 287.03C118.971 287.449 118.874 287.91 118.91 288.371C118.947 288.832 119.118 289.277 119.405 289.666C119.693 290.054 120.089 290.374 120.557 290.596C121.025 290.818 121.55 290.934 122.083 290.934H552.852C553.394 290.934 553.927 290.814 554.401 290.585C554.874 290.357 555.273 290.027 555.558 289.628C555.843 289.229 556.005 288.773 556.029 288.304C556.053 287.835 555.939 287.369 555.696 286.949L533.431 248.403C533.168 247.944 532.763 247.559 532.26 247.29C531.757 247.021 531.177 246.879 530.587 246.881L142.568 246.881Z" fill="#CCCCCC"/>
<path d="M336.117 10.5544C338.752 10.5544 340.888 8.70533 340.888 6.42441C340.888 4.14348 338.752 2.29443 336.117 2.29443C333.482 2.29443 331.346 4.14348 331.346 6.42441C331.346 8.70533 333.482 10.5544 336.117 10.5544Z" fill="white"/>
<path d="M293.776 298.276C293.077 298.277 292.397 298.476 291.842 298.845C291.287 299.213 290.888 299.729 290.705 300.313L285.567 316.833C285.44 317.241 285.423 317.669 285.518 318.084C285.612 318.498 285.816 318.888 286.113 319.224C286.41 319.559 286.792 319.831 287.23 320.018C287.668 320.205 288.149 320.302 288.638 320.302H386.355C386.862 320.302 387.362 320.197 387.813 319.996C388.263 319.795 388.652 319.504 388.946 319.146C389.24 318.788 389.431 318.375 389.503 317.941C389.575 317.506 389.526 317.063 389.36 316.648L382.754 300.128C382.537 299.588 382.132 299.119 381.593 298.787C381.054 298.455 380.409 298.276 379.748 298.276H293.776Z" fill="#CCCCCC"/>
<path d="M554.531 229.902V233.573H117.385L117.714 233.114V229.902H554.531Z" fill="#CCCCCC"/>
<path d="M500.574 238.311C500.403 238.312 500.238 238.36 500.103 238.45C499.968 238.539 499.87 238.665 499.826 238.807L498.575 242.83C498.544 242.93 498.54 243.034 498.563 243.135C498.586 243.236 498.635 243.331 498.708 243.412C498.78 243.494 498.873 243.56 498.98 243.606C499.086 243.651 499.203 243.675 499.322 243.675H523.118C523.241 243.675 523.363 243.65 523.473 243.601C523.583 243.552 523.677 243.481 523.749 243.394C523.82 243.306 523.867 243.206 523.885 243.1C523.902 242.994 523.89 242.886 523.85 242.785L522.241 238.762C522.188 238.631 522.089 238.517 521.958 238.436C521.827 238.355 521.67 238.311 521.509 238.311H500.574Z" fill="#CCCCCC"/>
<path d="M465.829 238.311C465.659 238.312 465.493 238.36 465.358 238.45C465.223 238.539 465.126 238.665 465.081 238.807L463.83 242.83C463.799 242.93 463.795 243.034 463.818 243.135C463.841 243.236 463.891 243.331 463.963 243.412C464.035 243.494 464.128 243.56 464.235 243.606C464.342 243.651 464.459 243.675 464.578 243.675H488.373C488.497 243.675 488.619 243.65 488.728 243.601C488.838 243.552 488.933 243.481 489.004 243.394C489.076 243.306 489.122 243.206 489.14 243.1C489.158 242.994 489.146 242.886 489.105 242.785L487.497 238.762C487.444 238.631 487.345 238.517 487.214 238.436C487.083 238.355 486.926 238.311 486.765 238.311H465.829Z" fill="#CCCCCC"/>
<path d="M365.167 263.872H367.032L363.302 48.0899H361.437L361.511 52.3948H319.711L319.786 48.0899H317.921L314.191 263.872H316.056L316.298 249.882H364.925L365.167 263.872ZM362.479 108.358H318.744L319.2 81.9909H362.023L362.479 108.358ZM362.506 109.973L362.962 136.34H318.26L318.716 109.973H362.506ZM362.99 137.954L363.446 164.322H317.777L318.233 137.954H362.99ZM363.474 165.936L363.93 192.304H317.293L317.749 165.936H363.474ZM363.958 193.918L364.413 220.286H316.809L317.265 193.918H363.958ZM361.539 54.0092L361.995 80.3766H319.228L319.684 54.0092H361.539ZM316.326 248.267L316.781 221.9H364.441L364.897 248.267H316.326Z" fill="#3F3D56"/>
<path d="M331.372 122.413C348.168 122.413 361.783 110.627 361.783 96.089C361.783 81.5508 348.168 69.7654 331.372 69.7654C314.577 69.7654 300.962 81.5508 300.962 96.089C300.962 110.627 314.577 122.413 331.372 122.413Z" fill="#2F2E41"/>
<path d="M349.26 114.281L340.169 115.705L343.118 129.804L352.209 128.38L349.26 114.281Z" fill="#2F2E41"/>
<path d="M331.078 117.13L321.988 118.554L324.936 132.653L334.027 131.229L331.078 117.13Z" fill="#2F2E41"/>
<path d="M329.762 135.62C333.007 133.242 334.802 130.46 333.771 129.406C332.741 128.353 329.275 129.428 326.03 131.806C322.786 134.185 320.991 136.967 322.021 138.02C323.052 139.073 326.517 137.999 329.762 135.62Z" fill="#2F2E41"/>
<path d="M347.565 132.831C350.81 130.452 352.605 127.67 351.574 126.617C350.544 125.563 347.078 126.638 343.833 129.016C340.589 131.395 338.794 134.177 339.824 135.23C340.855 136.284 344.32 135.209 347.565 132.831Z" fill="#2F2E41"/>
<path d="M329.244 98.6467C334.984 98.6467 339.637 94.6188 339.637 89.6501C339.637 84.6813 334.984 80.6534 329.244 80.6534C323.503 80.6534 318.85 84.6813 318.85 89.6501C318.85 94.6188 323.503 98.6467 329.244 98.6467Z" fill="white"/>
<path d="M324.972 89.4241C326.885 89.4241 328.436 88.0815 328.436 86.4253C328.436 84.769 326.885 83.4264 324.972 83.4264C323.058 83.4264 321.507 84.769 321.507 86.4253C321.507 88.0815 323.058 89.4241 324.972 89.4241Z" fill="#3F3D56"/>
<path d="M355.362 67.4517C355.819 57.7063 346.116 49.4519 333.69 49.015C321.263 48.5781 310.818 56.124 310.361 65.8694C309.904 75.6148 318.542 77.829 330.969 78.266C343.395 78.7029 354.905 77.1971 355.362 67.4517Z" fill="#FF7F00"/>
<path d="M318.113 94.2339C318.702 92.0096 312.544 88.8898 304.359 87.2658C296.174 85.6417 289.061 86.1283 288.472 88.3526C287.883 90.5769 294.041 93.6966 302.226 95.3207C310.411 96.9447 317.524 96.4582 318.113 94.2339Z" fill="#2F2E41"/>
<path d="M377.808 102.827C378.397 100.603 372.239 97.4829 364.054 95.8588C355.868 94.2348 348.755 94.7214 348.166 96.9457C347.577 99.17 353.735 102.29 361.921 103.914C370.106 105.538 377.219 105.051 377.808 102.827Z" fill="#2F2E41"/>
<path d="M339.725 106.463C339.889 107.238 339.874 108.034 339.683 108.804C339.491 109.574 339.126 110.305 338.608 110.953C338.091 111.601 337.43 112.155 336.665 112.582C335.9 113.009 335.046 113.302 334.15 113.443C333.254 113.584 332.335 113.571 331.445 113.404C330.555 113.238 329.712 112.921 328.964 112.473C328.215 112.024 327.576 111.452 327.083 110.789C326.59 110.127 326.253 109.387 326.091 108.611L326.088 108.6C325.407 105.34 328.318 104.187 332.084 103.597C335.849 103.007 339.043 103.203 339.725 106.463Z" fill="white"/>
<path d="M228.374 185.494C231.447 178.533 231.892 172.214 229.368 171.378C226.844 170.543 222.306 175.509 219.232 182.469C216.159 189.43 215.714 195.749 218.238 196.585C220.762 197.42 225.3 192.454 228.374 185.494Z" fill="#2F2E41"/>
<path d="M225.76 208.681C228.518 193.97 216.977 180.11 199.982 177.723C182.988 175.335 166.975 185.325 164.217 200.036C161.459 214.747 173 228.608 189.995 230.995C206.99 233.382 223.002 223.392 225.76 208.681Z" fill="#2F2E41"/>
<path d="M190.253 225.536H180.783V240.224H190.253V225.536Z" fill="#2F2E41"/>
<path d="M209.194 225.536H199.724V240.224H209.194V225.536Z" fill="#2F2E41"/>
<path d="M188.675 242.957C193.034 242.957 196.567 241.81 196.567 240.395C196.567 238.98 193.034 237.833 188.675 237.833C184.316 237.833 180.783 238.98 180.783 240.395C180.783 241.81 184.316 242.957 188.675 242.957Z" fill="#2F2E41"/>
<path d="M207.616 242.615C211.975 242.615 215.508 241.468 215.508 240.054C215.508 238.639 211.975 237.492 207.616 237.492C203.257 237.492 199.724 238.639 199.724 240.054C199.724 241.468 203.257 242.615 207.616 242.615Z" fill="#2F2E41"/>
<path d="M164.749 179.264C162.232 169.506 170.278 159.646 182.721 157.241C195.164 154.836 207.291 160.796 209.808 170.555C212.325 180.313 204.079 183.912 191.636 186.316C179.193 188.721 167.266 189.022 164.749 179.264Z" fill="#FF7F00"/>
<path d="M173.96 197.62C175.118 195.506 169.751 191.204 161.973 188.011C154.195 184.817 146.951 183.942 145.793 186.056C144.635 188.17 150.001 192.472 157.779 195.665C165.557 198.858 172.802 199.733 173.96 197.62Z" fill="#2F2E41"/>
<path d="M60.0074 258.666C77.2243 258.666 91.1815 246.585 91.1815 231.682C91.1815 216.779 77.2243 204.697 60.0074 204.697C42.7904 204.697 28.8333 216.779 28.8333 231.682C28.8333 246.585 42.7904 258.666 60.0074 258.666Z" fill="#2F2E41"/>
<path d="M55.2721 252.86H45.8015V267.547H55.2721V252.86Z" fill="#2F2E41"/>
<path d="M74.2133 252.86H64.7427V267.547H74.2133V252.86Z" fill="#2F2E41"/>
<path d="M53.6936 270.28C58.0523 270.28 61.5858 269.133 61.5858 267.718C61.5858 266.303 58.0523 265.156 53.6936 265.156C49.3348 265.156 45.8014 266.303 45.8014 267.718C45.8014 269.133 49.3348 270.28 53.6936 270.28Z" fill="#2F2E41"/>
<path d="M72.6349 269.938C76.9936 269.938 80.5271 268.791 80.5271 267.377C80.5271 265.962 76.9936 264.815 72.6349 264.815C68.2761 264.815 64.7427 265.962 64.7427 267.377C64.7427 268.791 68.2761 269.938 72.6349 269.938Z" fill="#2F2E41"/>
<path d="M60.7967 234.073C66.6809 234.073 71.4511 229.944 71.4511 224.85C71.4511 219.757 66.6809 215.628 60.7967 215.628C54.9124 215.628 50.1422 219.757 50.1422 224.85C50.1422 229.944 54.9124 234.073 60.7967 234.073Z" fill="white"/>
<path d="M60.7966 227.924C62.758 227.924 64.3481 226.548 64.3481 224.85C64.3481 223.152 62.758 221.776 60.7966 221.776C58.8352 221.776 57.2451 223.152 57.2451 224.85C57.2451 226.548 58.8352 227.924 60.7966 227.924Z" fill="#3F3D56"/>
<path d="M29.7674 206.587C27.2502 196.829 35.2966 186.969 47.7395 184.564C60.1823 182.159 72.3098 188.12 74.827 197.878C77.3442 207.636 69.0978 211.235 56.655 213.64C44.2121 216.045 32.2846 216.345 29.7674 206.587Z" fill="#E6E6E6"/>
<path d="M82.7379 135.279C85.8114 128.318 86.2565 121.999 83.7322 121.163C81.2078 120.328 76.6699 125.294 73.5964 132.254C70.5229 139.215 70.0778 145.534 72.6021 146.37C75.1265 147.205 79.6644 142.239 82.7379 135.279Z" fill="#2F2E41"/>
<path d="M80.1245 158.466C82.8823 143.755 71.3411 129.895 54.3464 127.508C37.3518 125.12 21.3392 135.111 18.5813 149.821C15.8235 164.532 27.3647 178.393 44.3593 180.78C61.354 183.167 77.3666 173.177 80.1245 158.466Z" fill="#2F2E41"/>
<path d="M44.6176 175.322H35.147V190.009H44.6176V175.322Z" fill="#2F2E41"/>
<path d="M63.5589 175.322H54.0883V190.009H63.5589V175.322Z" fill="#2F2E41"/>
<path d="M43.0392 192.742C47.3979 192.742 50.9314 191.595 50.9314 190.18C50.9314 188.765 47.3979 187.618 43.0392 187.618C38.6804 187.618 35.147 188.765 35.147 190.18C35.147 191.595 38.6804 192.742 43.0392 192.742Z" fill="#2F2E41"/>
<path d="M61.9805 192.4C66.3392 192.4 69.8727 191.253 69.8727 189.839C69.8727 188.424 66.3392 187.277 61.9805 187.277C57.6217 187.277 54.0883 188.424 54.0883 189.839C54.0883 191.253 57.6217 192.4 61.9805 192.4Z" fill="#2F2E41"/>
<path d="M50.1421 156.535C56.0264 156.535 60.7966 152.406 60.7966 147.312C60.7966 142.219 56.0264 138.09 50.1421 138.09C44.2578 138.09 39.4877 142.219 39.4877 147.312C39.4877 152.406 44.2578 156.535 50.1421 156.535Z" fill="white"/>
<path d="M50.1422 150.386C52.1036 150.386 53.6937 149.01 53.6937 147.312C53.6937 145.614 52.1036 144.238 50.1422 144.238C48.1808 144.238 46.5907 145.614 46.5907 147.312C46.5907 149.01 48.1808 150.386 50.1422 150.386Z" fill="#3F3D56"/>
<path d="M19.113 129.049C16.5958 119.291 24.6422 109.431 37.0851 107.026C49.5279 104.621 61.6554 110.581 64.1726 120.339C66.6897 130.098 58.4434 133.696 46.0005 136.101C33.5577 138.506 21.6301 138.807 19.113 129.049Z" fill="#FF7F00"/>
<path d="M28.3239 147.405C29.482 145.291 24.1155 140.989 16.3375 137.796C8.55944 134.603 1.31529 133.727 0.157203 135.841C-1.00088 137.955 4.36564 142.257 12.1437 145.45C19.9217 148.643 27.1658 149.518 28.3239 147.405Z" fill="#2F2E41"/>
<path d="M34.0403 163.879C34.0403 166.52 41.8964 171.735 50.6138 171.735C59.3313 171.735 67.5049 164.299 67.5049 161.658C67.5049 159.017 59.3313 162.171 50.6138 162.171C41.8964 162.171 34.0403 161.238 34.0403 163.879Z" fill="white"/>
<path d="M80.0021 51.1083C79.4264 51.1089 78.8744 51.3071 78.4673 51.6595C78.0602 52.0119 77.8312 52.4897 77.8306 52.988V130.682C77.8312 131.181 78.0602 131.659 78.4673 132.011C78.8744 132.363 79.4264 132.562 80.0021 132.562H287.746C288.322 132.562 288.874 132.363 289.281 132.011C289.688 131.659 289.917 131.181 289.917 130.682V52.988C289.917 52.4897 289.688 52.0119 289.281 51.6595C288.874 51.3071 288.322 51.1089 287.746 51.1083H80.0021Z" fill="#FF7F00"/>
<path d="M136.096 110.082C147.738 110.082 157.175 101.912 157.175 91.8352C157.175 81.7581 147.738 73.5889 136.096 73.5889C124.454 73.5889 115.017 81.7581 115.017 91.8352C115.017 101.912 124.454 110.082 136.096 110.082Z" fill="white"/>
<path d="M183.671 89.4076C183.025 89.4168 182.408 89.6456 181.955 90.0447C181.501 90.4438 181.247 90.9811 181.247 91.5409C181.247 92.1007 181.501 92.6381 181.955 93.0372C182.408 93.4363 183.025 93.6651 183.671 93.6743H250.226C250.549 93.6791 250.871 93.6287 251.173 93.5258C251.474 93.4229 251.749 93.2697 251.981 93.0748C252.214 92.88 252.401 92.6473 252.529 92.3901C252.658 92.1329 252.727 91.8563 252.733 91.576C252.738 91.2957 252.679 91.0172 252.56 90.7565C252.441 90.4958 252.264 90.258 252.039 90.0566C251.813 89.8552 251.545 89.6943 251.247 89.5829C250.95 89.4715 250.63 89.412 250.307 89.4076C250.28 89.4072 250.253 89.4072 250.226 89.4076H183.671Z" fill="white"/>
<path d="M183.671 77.0471C183.025 77.0563 182.408 77.2852 181.955 77.6842C181.501 78.0833 181.247 78.6207 181.247 79.1805C181.247 79.7403 181.501 80.2777 181.955 80.6768C182.408 81.0759 183.025 81.3047 183.671 81.3139H216.907C217.231 81.3187 217.553 81.2682 217.854 81.1654C218.155 81.0625 218.43 80.9093 218.663 80.7144C218.896 80.5196 219.082 80.2869 219.211 80.0297C219.34 79.7725 219.409 79.4959 219.414 79.2156C219.419 78.9353 219.361 78.6568 219.242 78.3961C219.123 78.1354 218.945 77.8975 218.72 77.6962C218.495 77.4948 218.226 77.3338 217.929 77.2224C217.631 77.1111 217.312 77.0515 216.988 77.0471C216.961 77.0467 216.934 77.0467 216.907 77.0471H183.671Z" fill="white"/>
<path d="M183.671 102.357C183.025 102.366 182.408 102.595 181.955 102.994C181.501 103.393 181.247 103.93 181.247 104.49C181.247 105.05 181.501 105.587 181.955 105.986C182.408 106.385 183.025 106.614 183.671 106.623H250.226C250.549 106.628 250.871 106.578 251.173 106.475C251.474 106.372 251.749 106.219 251.981 106.024C252.214 105.829 252.401 105.596 252.529 105.339C252.658 105.082 252.727 104.805 252.733 104.525C252.738 104.245 252.679 103.966 252.56 103.706C252.441 103.445 252.264 103.207 252.039 103.006C251.813 102.804 251.545 102.643 251.247 102.532C250.95 102.421 250.63 102.361 250.307 102.357C250.28 102.356 250.253 102.356 250.226 102.357H183.671Z" fill="white"/>
<path d="M506.902 246.069C509.427 245.233 508.982 238.914 505.908 231.953C502.835 224.993 498.297 220.027 495.772 220.862C493.248 221.698 493.693 228.017 496.767 234.978C499.84 241.938 504.378 246.904 506.902 246.069Z" fill="#2F2E41"/>
<path d="M528.631 286.118C545.625 283.731 557.166 269.87 554.409 255.159C551.651 240.449 535.638 230.458 518.644 232.846C501.649 235.233 490.108 249.094 492.866 263.804C495.623 278.515 511.636 288.505 528.631 286.118Z" fill="#2F2E41"/>
<path d="M537.843 280.66H528.373L530.226 298.25L537.859 296.454L537.843 280.66Z" fill="#2F2E41"/>
<path d="M517.196 280.706H507.726L509.579 298.295L516.868 296.454L517.196 280.706Z" fill="#2F2E41"/>
<path d="M509.31 299.122C513.657 298.847 517.084 297.48 516.965 296.068C516.846 294.657 513.225 293.736 508.878 294.012C504.531 294.287 501.103 295.654 501.223 297.065C501.342 298.476 504.962 299.397 509.31 299.122Z" fill="#2F2E41"/>
<path d="M522.848 261.873C528.732 261.873 533.502 257.744 533.502 252.65C533.502 247.557 528.732 243.428 522.848 243.428C516.964 243.428 512.193 247.557 512.193 252.65C512.193 257.744 516.964 261.873 522.848 261.873Z" fill="white"/>
<path d="M522.848 255.725C524.809 255.725 526.399 254.348 526.399 252.65C526.399 250.953 524.809 249.576 522.848 249.576C520.886 249.576 519.296 250.953 519.296 252.65C519.296 254.348 520.886 255.725 522.848 255.725Z" fill="#3F3D56"/>
<path d="M560.514 243.212C565.628 237.218 568.012 231.232 565.839 229.842C563.665 228.453 557.756 232.185 552.642 238.179C547.527 244.173 545.144 250.158 547.317 251.548C549.491 252.938 555.399 249.206 560.514 243.212Z" fill="#2F2E41"/>
<path d="M508.427 273.396C508.427 271.219 514.902 266.921 522.087 266.921C529.271 266.921 536.008 273.049 536.008 275.226C536.008 277.402 529.271 274.803 522.087 274.803C514.902 274.803 508.427 275.572 508.427 273.396Z" fill="white"/>
<path d="M611.054 237.182L440.41 216.705C439.08 216.544 437.878 215.933 437.067 215.006C436.257 214.078 435.904 212.91 436.087 211.759L455.27 91.9764C455.456 90.8248 456.163 89.784 457.234 89.0825C458.305 88.3809 459.654 88.0759 460.985 88.2342L631.628 108.711C632.959 108.872 634.161 109.483 634.972 110.411C635.782 111.338 636.135 112.506 635.952 113.658L616.768 233.44C616.582 234.592 615.876 235.632 614.805 236.334C613.734 237.035 612.385 237.34 611.054 237.182Z" fill="#FF7F00"/>
<path d="M549.922 199.8L462.804 189.346C462.694 189.334 462.587 189.313 462.482 189.284L513.578 132.451C513.891 132.096 514.308 131.82 514.784 131.65C515.261 131.48 515.782 131.423 516.292 131.484C516.803 131.546 517.286 131.723 517.691 131.999C518.097 132.274 518.41 132.638 518.6 133.053L539.613 177.829L540.62 179.972L549.922 199.8Z" fill="white"/>
<path opacity="0.2" d="M549.922 199.799L520.177 196.23L537.719 179.624L538.982 178.428L539.613 177.829L540.62 179.972L549.922 199.799Z" fill="black"/>
<path d="M598.428 205.62L523.078 196.579L540.62 179.972L541.883 178.776L564.741 157.134C565.136 156.809 565.606 156.559 566.119 156.401C566.633 156.243 567.179 156.181 567.723 156.218C568.266 156.254 568.794 156.39 569.273 156.615C569.752 156.84 570.171 157.15 570.503 157.524C570.587 157.629 570.662 157.739 570.73 157.853L598.428 205.62Z" fill="white"/>
<path d="M550.981 151.744C558.177 151.744 564.01 146.695 564.01 140.466C564.01 134.237 558.177 129.188 550.981 129.188C543.785 129.188 537.952 134.237 537.952 140.466C537.952 146.695 543.785 151.744 550.981 151.744Z" fill="white"/>
<path d="M479.67 99.335L463.896 97.4421L461.709 111.096L477.483 112.989L479.67 99.335Z" fill="#3F3D56"/>
<path d="M553.877 234.387C556.394 224.629 548.348 214.769 535.905 212.364C523.462 209.959 511.335 215.92 508.817 225.678C506.3 235.436 514.547 239.035 526.989 241.44C539.432 243.845 551.36 244.145 553.877 234.387Z" fill="#F2F2F2"/>
<path d="M530.078 299.078C534.426 298.803 537.853 297.436 537.734 296.025C537.615 294.614 533.994 293.693 529.647 293.968C525.3 294.243 521.872 295.61 521.991 297.021C522.111 298.432 525.731 299.353 530.078 299.078Z" fill="#2F2E41"/>
</g>
<defs>
<clipPath id="clip0">
<rect width="636" height="346" fill="white"/>
</clipPath>
</defs>
</svg>
